# xmcd
#
# Track frame offsets:
#	150
#	17045
#	30187
#	47017
#	61857
#	78330
#	92330
#	109072
#	124487
#	138075
#	154885
#	168670
#	186577
#	201085
#	212972
#	227235
#	247647
#
# Disc length: 3323
#
# Revision: 1
# Processed by: cddbd v1.5.1PL0 Copyright (c) Steve Scherf et al.
# Submitted via: VisiTrax 2.9.5.180 - For more info visit www.synapsa.com
# Normalized: r0:DSETVAR1
#
DISCID=de0cf911
DTITLE=Various Artist - CDX 85 June 1994
DYEAR=1994
DGENRE=
TTITLE0=Jamie O'Hara - 50,000 names
TTITLE1=John Michael Montgomery - Be my baby tonight
TTITLE2=Rodney Crowell - Big heart
TTITLE3=Clay Walker - Dreaming with my eyes open
TTITLE4=Merle Haggard - I'm an island
TTITLE5=Jamie O'Hara - It ain't over (til your heart says it's over)
TTITLE6=Radney Foster - Labor of love
TTITLE7=Cleve Francis - Love or the lck there of
TTITLE8=Dwight Yoakoam - Pocket of a clown
TTITLE9=Doug Supernaw - State fair
TTITLE10=Jon Randall - This heart
TTITLE11=Western Flyer - Western flyer
TTITLE12=Randy Travis - Whisper my name
TTITLE13=Joy Lynn White - Wild love
TTITLE14=John Gorka - Good noise
TTITLE15=Michael Martin Murphy - The wild west is gonna get wilder
TTITLE16=John Anderson - Boating safety
EXTD=
EXTT0=
EXTT1=
EXTT2=
EXTT3=
EXTT4=
EXTT5=
EXTT6=
EXTT7=
EXTT8=
EXTT9=
EXTT10=
EXTT11=
EXTT12=
EXTT13=
EXTT14=
EXTT15=
EXTT16=
PLAYORDER=
